<svg xmlns="http://www.w3.org/2000/svg" xml:space="preserve" viewBox="0 0 1952.5 1255.4">
  <path fill="currentColor" d="m290.1 267.3-.3-1.5c-.5-2.1-1.4-4.7-3.8-7.6 17.2-33.4 11.6-69.9-14.6-92.1-8.9-7.5-19-12.4-29.5-14.2 23-13.8 46.8-26.2 71.8-39.2 25-13 50.7-26.3 76-41.5.4 1.2.8 2.5 1.1 3.7l2.3 9L401 79c10.1-6.2 20.7-9.5 30.6-9.5 15.8 0 28.4 8.1 36.5 23.5 15.4 29.3-.8 56.6-23.7 70.6l-6.9 4.2 5.4 6.1c1 1.1 2 2.4 2.8 3.6-26.9 16.7-51.5 34.2-75.4 51.2-22.8 16.2-44.3 31.5-66.7 45.4l-13.5-6.8z"/>
  <path fill="currentColor" d="M175.8 409.3c-2.1-31.8-20.5-56.6-48.9-64.1-5.3-1.4-10.9-2.2-16.4-2.2-12.9 0-25.1 4.3-35.7 12.6l-6.4-23c16.7-22.9 34.7-44.5 53.7-67.4 18.5-22.3 37.7-45.3 55.7-69.8.7.9 1.4 1.8 2 2.6l5.5 7.7 5.6-7.7c11.6-15.9 26.6-25.1 41.2-25.1 9 0 17.7 3.4 25.6 10.1 24.5 20.7 19.1 52.7 2.8 75.1l-4.8 6.6 7.4 3.5c1.2.6 2.5 1.3 3.6 2-19 26.5-35.6 52.9-51.7 78.5-13.2 21.2-25.8 41.3-39.2 60.6z"/>
  <path fill="currentColor" d="M124.7 623.1C112.2 599 91.4 584.8 68 584.8c-6.4 0-12.8 1-18.9 2.9-11 3.3-20.8 9.5-28.4 17.9l-.4-.1-14.5-17.9c6.5-28.3 14.7-56.1 23.3-85.4 8.4-28.7 17.1-58.3 24.2-88.7.9.5 1.9 1 2.8 1.5l8 4.6 2-9c3.1-13.6 8.8-25 16.7-33.1 7.8-8 17.3-12.2 27.6-12.2 3.6 0 7.3.5 11.1 1.5 30 7.9 37.1 39.4 30.8 67l-1.9 8.4h8.6c1.2 0 2.5.1 3.6.1-7.1 32.5-12.2 63.9-17.1 94.3-4.7 29.3-9.2 56.9-15.2 84.3l-5.6 2.2z"/>
  <path fill="currentColor" d="M55.8 863.2c-7.3-28-13-56.4-18.9-86.4-5.9-29.6-12-60.2-19.9-90.6 1.2-.1 2.5-.3 3.6-.3l8.6-.3-2.2-8.3c-7.3-27.4-1.3-59.1 28.4-68.3 4.3-1.3 8.6-2 12.7-2 20.2 0 37.2 16.6 44.3 43.4l2.4 9 7.9-4.9c.9-.5 1.8-1.1 2.7-1.6 8.7 31.8 18.6 61.6 28.3 90.4 9.4 28 18.2 54.5 25.5 81.5l-6.1 8.2c-1.3.3-2.8.9-4.4 1.9-13.8-12.3-29.9-19-45.7-19-15.1 0-29.5 6-41.6 17.4-9.6 9-16.3 20-19.6 32.2l-6-2.3z"/>
  <path fill="currentColor" d="M195 1080c-17.5-22-33.7-45.1-50.8-69.5-17-24.2-34.5-49.2-53.5-73.2 1.1-.8 2.4-1.6 3.6-2.2l7.1-3.9-5.1-6.4c-17.3-21.6-24.2-53.2-.7-75.2 8.2-7.7 17.3-11.6 27.1-11.6 14 0 28.7 8.3 40.3 22.8l5.9 7.4 5.1-7.9c.6-.9 1.3-1.9 1.9-2.8 20.2 24.8 40.8 47.1 60.7 68.8 19.4 21.1 37.7 41 54.9 62.1l-3.7 16.3c-2.9-.4-5.8-.6-8.7-.6-26.1 0-47.4 14.5-58.4 39.8-4.7 10.6-6.8 22.2-6.1 33.8L195 1080z"/>
  <path fill="currentColor" d="M417.4 1220c-24.2-12.4-47.6-26.4-72.3-41.2-24.5-14.7-49.8-29.8-76.1-43.4.8-1.2 1.7-2.6 2.6-3.8l4.9-6.5-7.3-3.7c-23.8-12-41.8-37.9-28.6-68.4 7.5-17.2 21.2-26.7 38.6-26.7 8.7 0 18.2 2.4 27.3 7.1l8.2 4.1 1.6-9c.2-1.3.5-2.6.9-3.8 27.8 13.8 55 25.2 81.3 36.3 25.5 10.7 49.7 20.9 73.2 32.7l3.2 19.3c-33.3 9.1-54 37.4-52.1 72.3.4 9.4 2.7 18.8 6.7 27.3l-12.1 7.4z"/>
  <path fill="currentColor" d="M505.9 1241.4c.1-1.4.3-3 .6-4.4l1.5-8.5-8.7.6c-1.5.1-3.1.2-4.6.2-13.8 0-25.8-4-34.8-11.6-9.3-7.9-14.7-19.5-15.5-33.5-.8-14.7 3.7-27.4 13-36.7 8.9-8.8 21.8-14.2 36.6-15.2l8.5-.6-2.4-8.2c-.4-1.4-.8-3-1.1-4.4 30.7-2.2 59.8-6.3 88-10.2 27.1-3.7 52.7-7.3 78.5-9.1l1.3 1.8-.5 5.5c-.2 1.9-.7 7.1 3.9 13-7.2 13.2-10.9 27.1-10.9 40.7 0 20.4 8.1 38.4 23.6 52.1.5.5 1.1.9 1.6 1.3l.3 4.8-11.5 20.2c-19.6 1.2-38.9 1.3-53.8 1.3-9.3 0-18.7-.1-27.9-.1-9.3-.1-19-.1-28.6-.1-15.7-.3-36-.1-57.1 1.1zM1649 274.1c-22.4-13.9-44-29.2-66.8-45.5-23.8-17-48.5-34.5-75.3-51.1.8-1.2 1.9-2.5 2.8-3.6l5.4-6.1-6.9-4.2c-22.9-14-39.1-41.2-23.7-70.6 8-15.4 20.7-23.5 36.5-23.5 9.9 0 20.4 3.3 30.5 9.5l7.9 4.8 2.3-9c.3-1.2.7-2.5 1.1-3.7 25.3 15.1 51.1 28.5 76 41.5 25 13 48.7 25.3 71.8 39.1-10.5 1.9-20.6 6.7-29.5 14.2-26.3 22.2-31.8 58.7-14.6 92.1-2.4 2.9-3.3 5.4-3.8 7.5-.1.5-.2 1-.3 1.6l-13.4 7z"/>
  <path fill="currentColor" d="M1776.7 409.3c-13.4-19.3-26.1-39.5-39.4-60.6-16-25.5-32.6-51.8-51.5-78.3 1.1-.7 2.5-1.4 3.6-2l7.4-3.5-4.8-6.6c-16.3-22.5-21.8-54.4 2.8-75.2 8-6.7 16.6-10.1 25.6-10.1 14.6 0 29.7 9.1 41.2 25.1l5.6 7.7 5.5-7.7c.6-.9 1.3-1.8 2-2.6 18 24.4 37.1 47.4 55.7 69.8 19 22.9 37 44.5 53.7 67.3l-6.4 23c-10.6-8.2-22.8-12.6-35.7-12.6-5.6 0-11.1.8-16.5 2.2-28.4 7.5-46.7 32.3-48.8 64.1z"/>
  <path fill="currentColor" d="M1822.2 620.7c-6-27.3-10.5-55.1-15.2-84.3-4.9-30.4-9.9-61.7-17.1-94.2 1.1-.1 2.3-.1 3.5-.1h8.6l-1.8-8.4c-6.3-27.7.8-59.1 30.8-67 3.8-1 7.5-1.5 11.1-1.5 21 0 38 17.3 44.3 45.3l2 9 8-4.6c.9-.5 1.9-1 2.8-1.5 7.1 30.4 15.8 59.9 24.2 88.6 8.6 29.4 16.8 57.2 23.3 85.5l-14.5 17.9-.4.1c-7.7-8.4-17.4-14.6-28.4-17.9-6.1-1.9-12.4-2.9-18.8-2.9-23.4 0-44.2 14.2-56.8 38.3l-5.6-2.3z"/>
  <path fill="currentColor" d="M1891 865.4c-3.3-12.2-9.9-23-19.6-32.1-12.1-11.4-26.5-17.4-41.6-17.4-15.8 0-31.8 6.7-45.7 19-1.6-1-3.1-1.5-4.4-1.9l-6.1-8.2c7.3-27 16.2-53.5 25.5-81.5 9.6-28.8 19.6-58.6 28.3-90.4.9.5 1.9 1 2.8 1.6l7.9 4.9 2.4-8.9c7.1-26.7 24.1-43.4 44.3-43.4 4.1 0 8.4.7 12.7 2 29.7 9.2 35.6 40.9 28.4 68.3l-2.2 8.3 8.6.3c1.2 0 2.4.2 3.6.3-7.9 30.4-13.9 61-19.9 90.6-6 30-11.7 58.4-18.9 86.4l-6.1 2.1z"/>
  <path fill="currentColor" d="M1737.7 1077.8c.7-11.6-1.4-23.2-6.1-33.9-11-25.2-32.2-39.7-58.3-39.7-2.9 0-5.8.2-8.7.6l-3.7-16.3c17.2-21.1 35.5-41.1 54.9-62.2 19.9-21.6 40.5-44 60.7-68.7.7.9 1.4 1.9 1.9 2.8l5.1 7.9 5.9-7.4c11.7-14.5 26.4-22.8 40.3-22.8 9.8 0 18.9 3.9 27.1 11.6 23.5 22 16.6 53.7-.7 75.2l-5.1 6.4 7.2 3.9c1.2.7 2.5 1.5 3.6 2.2-19 24-36.5 48.9-53.4 73.1-17.1 24.4-33.3 47.5-50.8 69.5l-19.9-2.2z"/>
  <path fill="currentColor" d="M1522.9 1212.5c4-8.6 6.3-17.9 6.7-27.3 1.9-34.9-18.8-63.1-52.1-72.3l3.1-19.2c23.5-11.8 47.7-21.9 73.2-32.7 26.3-11.1 53.5-22.5 81.3-36.3.3 1.3.6 2.6.9 3.8l1.6 9 8.2-4.1c9.1-4.6 18.6-7.1 27.3-7.1 17.4 0 31.1 9.5 38.6 26.7 5.8 13.4 6 27 .4 39.5-5.3 11.8-15.6 22.1-29 28.9l-7.3 3.7 4.9 6.5c.9 1.2 1.8 2.6 2.6 3.8-26.3 13.6-51.7 28.7-76.2 43.4-24.7 14.8-48.1 28.7-72.2 41.2l-12-7.5z"/>
  <path fill="currentColor" d="M1446.6 1241.4c-21.2-1.2-41.4-1.3-57-1.3-9.6 0-19.2.1-28.5.1-9.2.1-18.6.1-27.9.1-14.9 0-34.2-.2-53.9-1.3l-11.5-20.2.3-4.7c.5-.4 1.1-.8 1.6-1.3 15.4-13.6 23.6-31.6 23.6-52.1 0-13.6-3.8-27.5-10.9-40.7 4.6-5.9 4.1-11.1 3.9-13l-.5-5.5 1.3-1.8c25.7 1.8 51.4 5.4 78.4 9.1 28.2 3.9 57.3 7.9 88 10.2-.3 1.4-.7 3-1.1 4.4l-2.4 8.2 8.5.6c14.7 1 27.7 6.3 36.5 15.2 9.3 9.3 13.8 22 13 36.7-.8 13.9-6.1 25.5-15.4 33.5-8.9 7.6-21 11.6-34.8 11.6-1.5 0-3.1-.1-4.6-.2l-8.7-.6 1.5 8.6c.3 1.4.4 2.9.6 4.4zM958.2 828c-42.3 0-76.6 34.3-76.6 76.6s34.3 76.6 76.6 76.6c-.1-23.4 18.8-42.5 42.3-42.6 8 0 15.9 2.2 22.7 6.5 22.4-35.8 11.5-83-24.3-105.4-12.3-7.7-26.4-11.8-40.7-11.7z"/>
  <path fill="currentColor" d="M1262.4 1116.6s9.5-4.9 9.2-8.1c-4.5-47.5-7.5-82.3-12.2-110.1 9.1-29.5 13.8-60.1 13.7-91 0-85.6-78.5-300.4-156-491.6l79.3 185.2s73.9-49.7 76.6-76.6c13.6-137.5-306.4-459.7-306.4-459.7S646.5 386.9 660.2 524.4c2.7 27 76.6 76.6 76.6 76.6l79.3-185.2c-77.4 191.3-155.9 406-155.9 491.7 0 44.1 9.5 87.7 27.9 127.7-2.3 20.7-4.5 44.7-7.2 73.3-.3 3.2 9.2 8.1 9.2 8.1-20.7 27.3-23 62.1 2.3 84.4s56.4 12.9 77.1-14.4c0 0 6.2 8.2 9.2 8.1 22.9-1.1 48.4-1.1 73.3-3.1 75 30.2 158.8 29.7 233.4-1.5 29.6 3.6 61 3.4 88.6 4.6 3 .1 9.2-8.1 9.2-8.1 20.7 27.3 51.8 36.7 77.1 14.4s22.8-57.1 2.1-84.4zm-304.2-58.8c-19.2 0-38.2-3.6-56.1-10.6l-.1-.1c-40.3-16-72-48.3-87.2-88.9l-.3-.2c-6.3-17.1-9.6-35.1-9.6-53.3 0-84.6 68.6-153.2 153.2-153.2s153.2 68.6 153.2 153.2-68.5 153.1-153.1 153.1z"/>
</svg>