<?xml version="1.0" standalone="no"?>
<!DOCTYPE svg PUBLIC "-//W3C//DTD SVG 20010904//EN"
 "http://www.w3.org/TR/2001/REC-SVG-20010904/DTD/svg10.dtd">
<svg version="1.0" xmlns="http://www.w3.org/2000/svg"
 width="1953.000000pt" height="1953.000000pt" viewBox="0 0 1953.000000 1953.000000"
 preserveAspectRatio="xMidYMid meet">
<metadata>
Created by potrace 1.14, written by Peter Selinger 2001-2017
</metadata>
<g transform="translate(0.000000,1953.000000) scale(0.100000,-0.100000)"
fill="#000000" stroke="none">
<path d="M9518 15238 c-166 -174 -176 -185 -313 -333 -55 -60 -115 -125 -133
-144 -18 -19 -61 -67 -95 -105 -34 -38 -69 -77 -77 -86 -8 -9 -46 -52 -85 -95
-38 -44 -72 -82 -75 -85 -3 -3 -64 -72 -134 -155 -71 -82 -141 -163 -155 -180
-103 -117 -489 -595 -567 -700 -16 -22 -31 -42 -35 -45 -9 -8 -210 -279 -264
-355 -27 -38 -51 -72 -54 -75 -22 -19 -333 -489 -396 -598 -6 -9 -34 -57 -63
-105 -28 -48 -52 -90 -52 -93 0 -3 -9 -18 -19 -33 -36 -50 -189 -365 -245
-503 -109 -269 -156 -476 -152 -668 3 -126 9 -148 71 -240 53 -77 248 -268
390 -381 143 -114 288 -219 301 -219 5 0 101 215 212 478 112 262 212 495 222
517 18 40 132 307 196 459 18 43 36 81 40 85 8 7 10 11 -56 -154 -29 -71 -74
-186 -101 -255 -28 -69 -54 -134 -59 -145 -4 -11 -47 -123 -95 -250 -48 -126
-93 -243 -100 -260 -7 -16 -54 -142 -104 -280 -51 -137 -96 -259 -101 -270 -5
-11 -33 -90 -64 -175 -259 -733 -402 -1175 -545 -1680 -39 -138 -123 -486
-135 -563 -3 -15 -7 -35 -10 -45 -3 -9 -7 -35 -11 -56 -3 -21 -7 -48 -10 -60
-4 -20 -6 -35 -20 -138 -45 -334 -13 -721 89 -1088 38 -139 99 -315 140 -403
25 -53 27 -65 21 -135 -12 -135 -26 -268 -30 -293 -2 -8 -6 -53 -10 -100 -3
-46 -8 -100 -10 -119 -18 -154 -18 -158 7 -182 13 -13 33 -30 45 -38 l23 -15
-36 -55 c-77 -120 -115 -237 -118 -360 -2 -124 7 -168 57 -269 57 -115 208
-240 324 -269 61 -15 206 -6 265 17 80 31 171 94 244 169 l63 64 37 -37 37
-37 211 6 c267 8 475 16 503 21 12 2 86 -18 165 -45 129 -44 284 -89 363 -105
92 -18 146 -27 235 -40 30 -4 63 -9 74 -11 115 -21 577 -21 692 0 10 2 46 7
79 11 33 3 78 10 100 15 22 5 56 12 75 15 117 19 345 84 494 142 83 32 97 34
161 28 207 -18 293 -23 598 -31 l237 -6 36 36 c20 20 39 36 42 35 4 0 23 -19
42 -43 106 -128 277 -216 420 -216 209 0 423 181 474 401 38 159 -4 352 -110
512 l-35 52 23 15 c59 39 69 57 64 113 -6 55 -13 125 -21 217 -3 30 -8 73 -10
95 -3 22 -7 72 -10 110 -3 39 -8 88 -10 110 -13 95 -15 113 -20 166 -2 31 -6
69 -9 85 -2 16 -7 52 -10 79 -4 28 -11 84 -17 126 -9 66 -8 84 9 145 56 194
83 346 108 594 7 77 7 355 0 415 -4 28 -9 70 -12 95 -3 25 -7 56 -9 70 -3 14
-7 41 -10 60 -42 264 -150 699 -281 1130 -47 153 -285 881 -295 900 -4 8 -31
83 -59 165 -28 83 -57 166 -65 185 -13 33 -36 99 -84 235 -12 33 -25 69 -30
80 -5 11 -30 79 -56 150 -68 186 -275 725 -399 1039 -106 267 -139 369 -57
173 24 -56 51 -120 61 -142 9 -22 31 -71 48 -110 16 -38 133 -310 258 -602
125 -293 231 -533 236 -533 5 0 41 23 81 52 371 268 618 512 668 661 16 47 18
188 5 292 -84 654 -764 1752 -1930 3115 -163 190 -347 400 -435 495 -47 51
-121 132 -250 274 -13 14 -88 94 -166 176 -79 83 -171 180 -207 218 -35 37
-66 67 -69 67 -3 0 -71 -69 -151 -152z m1771 -3623 c0 -5 -6 1 -14 15 -8 14
-14 30 -14 35 0 6 6 -1 14 -15 8 -14 14 -29 14 -35z m-3238 -12 c-12 -20 -14
-14 -5 12 4 9 9 14 11 11 3 -2 0 -13 -6 -23z m3258 -35 c6 -18 7 -28 2 -23
-10 12 -25 55 -18 55 3 0 10 -15 16 -32z m-1529 -3052 c25 -4 59 -10 75 -12
70 -11 197 -48 290 -85 414 -161 748 -512 889 -932 30 -91 44 -141 51 -192 4
-22 8 -47 10 -55 24 -86 24 -356 0 -495 -38 -220 -135 -455 -263 -635 -111
-156 -302 -334 -462 -429 -60 -35 -197 -99 -272 -126 -723 -261 -1539 69
-1883 762 -52 105 -115 276 -130 353 -25 131 -33 230 -30 360 2 80 6 159 10
175 28 149 39 196 69 281 132 392 413 709 782 886 111 53 132 61 216 87 95 28
212 52 293 58 39 3 71 7 73 8 6 5 239 -3 282 -9z"/>
<path d="M9515 7758 c-135 -13 -304 -77 -390 -149 -121 -101 -183 -179 -239
-301 -106 -228 -82 -520 61 -735 126 -189 356 -326 567 -335 l69 -3 4 30 c14
116 50 192 129 270 100 99 246 141 392 111 13 -3 47 -16 76 -29 l54 -25 26 54
c60 122 78 196 82 329 4 149 -22 264 -88 385 -147 271 -436 426 -743 398z"/>
<path d="M4288 15345 c-2 -1 -23 -5 -48 -8 -63 -8 -154 -41 -214 -79 -106 -65
-93 -65 -107 -2 -7 31 -18 58 -25 61 -7 2 -31 -7 -54 -22 -90 -57 -292 -168
-565 -310 -136 -71 -282 -147 -425 -223 -74 -39 -236 -129 -377 -209 -24 -14
-43 -26 -43 -28 0 -1 32 -13 71 -25 149 -48 300 -179 378 -329 54 -104 71
-174 75 -306 4 -123 -20 -247 -68 -351 l-25 -55 19 -32 c11 -18 20 -39 20 -47
1 -9 30 -29 70 -48 l70 -32 142 94 c144 95 335 225 374 255 12 9 30 22 40 29
11 7 108 76 218 153 184 130 494 341 594 403 23 14 42 32 42 38 0 7 -17 29
-37 50 -20 21 -35 39 -32 41 2 2 36 24 75 50 185 121 286 289 286 474 0 120
-69 274 -160 355 -46 41 -120 82 -169 92 -35 8 -120 15 -125 11z"/>
<path d="M15170 15343 c-174 -23 -301 -141 -362 -336 -37 -118 -14 -276 56
-386 55 -87 166 -190 254 -235 17 -9 32 -20 32 -24 0 -4 -16 -24 -35 -45 -19
-21 -35 -42 -35 -47 0 -5 12 -17 28 -26 122 -75 466 -309 727 -495 260 -186
587 -408 641 -437 18 -10 30 -7 71 16 72 40 76 43 97 87 20 41 21 71 5 91 -13
16 -56 151 -68 214 -14 75 -7 242 13 315 36 131 125 265 233 354 64 52 189
117 245 126 l40 7 -54 32 c-29 18 -82 48 -118 68 -36 20 -85 47 -110 60 -91
51 -226 122 -510 270 -233 122 -515 275 -625 341 l-60 36 -20 -63 -20 -64 -35
23 c-97 61 -190 101 -258 111 -53 7 -107 10 -132 7z"/>
<path d="M2209 14295 c-110 -40 -212 -119 -295 -231 -62 -81 -65 -82 -105 -18
-11 19 -24 34 -28 34 -3 0 -33 -35 -66 -77 -104 -138 -285 -362 -480 -598
-105 -126 -220 -266 -255 -310 -36 -44 -70 -85 -75 -91 -45 -49 -215 -284
-215 -298 0 -22 50 -198 59 -208 4 -4 25 4 46 19 185 126 460 120 659 -12 73
-48 141 -116 186 -186 37 -57 83 -164 95 -219 19 -91 21 -108 20 -129 -2 -31
7 -20 115 144 51 77 101 152 111 167 11 15 19 32 19 38 0 5 5 10 10 10 6 0 10
4 10 9 0 6 45 80 100 166 55 86 100 158 100 160 0 2 13 23 29 47 15 24 63 97
106 163 112 174 189 289 196 295 3 3 12 16 19 29 7 14 17 30 22 35 4 6 24 32
43 58 l35 47 -55 26 c-34 17 -52 32 -48 39 4 6 21 31 39 56 151 212 179 466
69 640 -40 63 -124 138 -193 172 -55 27 -76 32 -151 34 -51 1 -100 -3 -122
-11z"/>
<path d="M17119 14300 c-185 -56 -325 -236 -331 -425 -5 -149 34 -265 144
-427 l38 -57 -55 -27 c-49 -24 -54 -29 -41 -43 18 -21 341 -507 429 -648 271
-430 455 -713 466 -713 3 0 7 18 9 41 6 91 55 229 111 317 67 103 161 184 274
236 81 37 137 48 247 52 115 3 217 -23 309 -79 66 -42 71 -43 71 -22 0 16 47
181 55 195 3 4 -23 46 -57 92 -65 88 -334 426 -352 443 -6 6 -29 33 -51 60
-21 28 -42 52 -45 55 -3 3 -18 21 -34 40 -36 45 -81 99 -148 180 -95 114 -252
312 -327 413 -41 53 -76 97 -80 97 -3 0 -19 -20 -36 -45 -16 -24 -33 -45 -37
-45 -3 0 -30 32 -58 70 -61 82 -142 157 -209 193 -88 49 -219 70 -292 47z"/>
<path d="M995 12371 c-73 -24 -117 -54 -179 -123 -66 -73 -118 -174 -147 -288
-12 -47 -23 -91 -25 -98 -3 -10 -17 -6 -54 14 -28 15 -52 25 -55 22 -3 -3 -27
-92 -55 -199 -27 -107 -85 -320 -130 -474 -44 -154 -107 -372 -140 -485 -97
-338 -153 -561 -143 -580 8 -18 57 -80 109 -139 l32 -35 33 33 c106 105 277
173 439 173 208 0 396 -111 524 -310 45 -69 47 -70 74 -60 16 6 29 16 29 22 0
10 8 51 29 146 3 14 7 36 10 50 2 14 11 59 18 100 8 41 17 91 20 110 3 19 8
46 11 60 3 14 10 52 15 85 6 33 12 71 14 85 3 14 7 43 10 65 4 22 15 96 27
165 11 69 22 139 25 155 3 17 14 80 24 140 11 61 22 127 26 149 3 21 8 48 10
60 2 11 7 35 10 51 2 17 13 73 24 125 10 52 21 106 24 120 2 14 9 44 14 68
l10 42 -60 0 -60 0 6 33 c2 17 7 43 10 57 24 104 25 228 3 330 -22 103 -95
217 -172 268 -109 72 -254 97 -360 63z"/>
<path d="M18325 12376 c-167 -40 -289 -172 -325 -351 -12 -58 -16 -218 -6
-260 2 -11 9 -40 15 -65 19 -80 18 -80 -49 -80 -43 0 -58 -3 -55 -12 2 -7 7
-24 9 -38 3 -14 16 -81 30 -150 21 -107 49 -252 61 -325 15 -86 85 -509 90
-545 3 -25 8 -52 10 -60 2 -8 6 -31 9 -50 4 -29 17 -103 50 -295 2 -11 17 -85
32 -163 26 -132 30 -145 55 -157 26 -14 49 -5 49 17 0 20 86 127 148 186 175
164 405 208 633 123 64 -24 157 -83 209 -131 l34 -33 34 39 c19 22 52 63 74
91 40 53 40 53 28 100 -6 27 -13 56 -15 65 -2 10 -25 96 -51 190 -25 95 -52
196 -60 223 -7 28 -26 95 -43 150 -115 389 -193 667 -252 894 -21 85 -41 157
-44 159 -5 5 -21 -2 -75 -33 -30 -17 -31 -17 -59 95 -64 257 -218 415 -412
425 -41 2 -97 -2 -124 -9z"/>
<path d="M668 9975 c-2 -2 -21 -5 -43 -8 -189 -26 -326 -157 -371 -358 -19
-86 -4 -305 27 -382 7 -15 9 -31 5 -34 -4 -4 -29 -8 -57 -9 -28 -2 -53 -5 -55
-6 -2 -2 3 -28 11 -58 9 -30 18 -71 21 -90 3 -19 7 -37 9 -40 9 -15 88 -385
180 -845 37 -181 75 -368 86 -415 78 -335 75 -327 116 -334 18 -4 25 5 44 57
49 130 166 269 291 345 181 108 391 112 589 11 47 -24 144 -92 153 -108 12
-18 61 12 89 55 l28 43 -35 123 c-44 154 -122 396 -270 844 -64 193 -119 359
-121 370 -8 35 -108 369 -111 373 -2 2 -25 -10 -51 -27 -48 -31 -63 -33 -63
-5 0 35 -64 203 -101 265 -46 76 -126 156 -188 188 -37 18 -175 52 -183 45z"/>
<path d="M18755 9957 c-173 -58 -300 -219 -355 -454 l-12 -53 -31 17 c-18 9
-34 19 -37 23 -3 5 -13 10 -24 12 -15 3 -25 -22 -73 -182 -30 -102 -110 -354
-178 -560 -68 -206 -140 -427 -160 -490 -20 -63 -43 -133 -51 -155 -7 -22 -32
-102 -54 -178 l-40 -139 31 -44 c42 -62 66 -65 131 -16 231 174 496 191 718
47 120 -78 241 -227 276 -340 19 -59 21 -61 58 -44 20 10 28 25 42 88 10 42
19 81 20 86 1 6 18 82 38 170 73 329 68 306 82 385 11 58 12 62 33 165 12 55
24 111 26 125 15 84 113 536 129 600 29 110 38 151 35 155 -3 2 -29 6 -59 8
-41 3 -54 8 -52 18 48 196 52 350 13 471 -56 172 -204 285 -386 294 -50 2 -95
-1 -120 -9z"/>
<path d="M1140 7649 c-142 -36 -260 -150 -310 -299 -57 -169 -11 -362 134
-555 33 -44 42 -63 34 -72 -6 -7 -16 -13 -22 -13 -6 0 -23 -10 -38 -23 l-27
-22 95 -125 c135 -177 135 -177 169 -225 16 -24 79 -113 139 -197 60 -84 192
-270 294 -413 102 -143 188 -262 191 -265 4 -3 18 -21 31 -40 13 -19 29 -40
35 -47 16 -20 29 -35 59 -76 18 -23 35 -36 45 -33 9 3 48 7 86 11 39 4 74 11
80 16 5 5 10 35 12 67 8 174 86 357 204 482 108 113 271 179 441 180 87 0 88
0 94 28 3 15 12 50 19 79 l13 51 -110 129 c-60 70 -126 146 -146 168 -20 22
-54 60 -76 85 -66 73 -218 240 -251 275 -48 51 -114 123 -205 225 -47 52 -87
97 -90 100 -3 3 -34 39 -70 80 -36 41 -67 77 -70 80 -3 3 -34 40 -69 83 -35
42 -67 77 -72 77 -4 0 -20 -20 -35 -45 -14 -25 -29 -45 -34 -45 -4 0 -25 21
-46 48 -154 193 -332 274 -504 231z"/>
<path d="M18170 7638 c-105 -40 -225 -135 -300 -240 l-29 -39 -33 50 c-18 28
-36 51 -39 51 -4 0 -24 -21 -45 -47 -36 -44 -215 -253 -239 -279 -5 -6 -46
-51 -90 -99 -44 -49 -105 -116 -136 -149 -31 -34 -67 -73 -80 -87 -33 -37
-173 -191 -235 -258 -28 -31 -68 -76 -90 -101 -21 -25 -45 -51 -52 -59 -7 -7
-46 -52 -85 -100 -40 -47 -80 -94 -89 -105 -10 -10 -16 -22 -14 -25 2 -3 11
-40 20 -81 l16 -75 103 0 c125 0 220 -27 318 -91 186 -122 311 -357 310 -581
0 -29 3 -54 7 -57 4 -2 39 -7 77 -10 39 -3 80 -8 92 -10 17 -4 36 14 100 97
84 108 261 350 334 456 82 119 102 146 273 385 94 131 178 248 186 260 8 11
50 66 92 121 l78 100 -28 22 c-15 12 -32 22 -38 23 -6 0 -16 6 -22 13 -9 10 2
31 43 85 203 270 196 566 -19 751 -81 70 -146 95 -246 98 -65 1 -98 -3 -140
-19z"/>
<path d="M3158 5730 c-13 -59 -13 -60 -38 -47 -201 103 -353 122 -494 62 -84
-36 -149 -99 -200 -195 -40 -77 -55 -128 -61 -211 -14 -206 104 -387 331 -510
33 -18 61 -33 63 -35 2 -2 -11 -22 -28 -46 -17 -23 -31 -47 -31 -52 0 -6 21
-22 48 -36 26 -14 94 -51 152 -84 58 -32 130 -72 160 -89 30 -17 181 -106 336
-198 155 -92 303 -180 330 -195 27 -14 56 -33 65 -40 8 -8 18 -14 21 -14 3 0
52 -26 109 -58 167 -94 240 -132 254 -132 8 0 30 10 48 23 19 12 43 27 52 33
17 10 17 15 -10 95 -23 70 -28 104 -31 209 -4 155 10 223 72 347 49 99 128
191 216 251 51 35 157 86 201 97 15 4 27 9 27 11 0 8 -32 189 -33 190 -9 7
-161 79 -277 131 -152 69 -184 82 -610 263 -145 62 -271 116 -280 121 -8 5
-82 39 -165 75 -82 37 -159 73 -170 80 -33 24 -43 16 -57 -46z"/>
<path d="M16240 5742 c-146 -72 -334 -155 -800 -352 -140 -60 -291 -125 -335
-145 -182 -83 -295 -139 -296 -147 -1 -4 -2 -11 -3 -15 -3 -14 -16 -98 -21
-133 l-4 -35 73 -27 c169 -64 331 -215 385 -360 7 -18 17 -42 21 -53 9 -20 15
-42 27 -87 3 -13 7 -73 8 -134 3 -113 -8 -186 -39 -277 -10 -27 -15 -54 -13
-60 3 -7 29 -25 59 -41 l55 -29 115 61 c64 34 156 85 204 113 49 29 107 62
130 74 22 12 77 45 123 74 45 28 84 51 86 51 2 0 68 39 146 86 176 106 453
265 576 330 51 27 93 53 93 57 0 5 -14 29 -32 53 -17 24 -29 45 -27 47 2 2 40
23 83 48 292 163 392 466 239 728 -85 146 -223 220 -387 208 -102 -8 -187 -36
-318 -105 -3 -2 -9 11 -12 27 -3 17 -9 45 -12 61 -3 17 -11 30 -17 29 -7 0
-55 -21 -107 -47z"/>
<path d="M6649 5046 c-2 -2 -50 -6 -107 -10 -56 -4 -108 -9 -115 -11 -6 -2
-39 -6 -72 -10 -60 -5 -73 -7 -220 -25 -44 -6 -98 -13 -120 -16 -22 -2 -51 -7
-65 -9 -14 -2 -47 -7 -75 -10 -27 -3 -57 -8 -65 -10 -8 -2 -42 -6 -75 -10 -33
-3 -67 -8 -75 -10 -8 -2 -42 -6 -75 -10 -33 -3 -89 -10 -125 -15 -36 -5 -94
-12 -130 -15 -36 -4 -78 -8 -95 -10 -16 -3 -66 -7 -110 -11 -71 -6 -127 -11
-132 -13 0 -1 5 -25 13 -53 18 -70 18 -74 -8 -74 -216 -3 -408 -99 -492 -245
-86 -151 -78 -388 19 -528 29 -43 111 -114 157 -137 88 -45 170 -62 291 -60
l108 2 -6 -36 c-4 -19 -9 -46 -12 -60 l-5 -26 379 3 c208 2 582 4 832 6 l453
2 19 24 c30 37 109 186 109 206 0 9 -31 50 -68 90 -203 217 -242 528 -104 824
24 53 24 54 7 84 -12 21 -18 49 -17 91 1 55 -7 93 -19 82z"/>
<path d="M12869 5042 c-1 -4 -2 -37 -3 -73 -1 -44 -8 -76 -20 -94 -17 -26 -17
-28 17 -108 126 -294 85 -583 -112 -799 -37 -40 -68 -82 -68 -93 -2 -32 108
-217 132 -223 11 -2 315 -6 675 -8 360 -2 728 -5 818 -8 l163 -4 -4 26 c-3 15
-8 44 -12 64 l-7 37 95 -4 c362 -13 579 217 534 565 -30 232 -236 392 -519
403 -54 2 -56 5 -33 80 8 26 13 48 12 48 -3 2 -37 6 -122 13 -103 8 -208 20
-290 31 -16 3 -52 7 -80 10 -27 3 -63 7 -80 10 -16 2 -52 7 -80 10 -27 3 -63
8 -80 10 -31 5 -82 12 -145 21 -19 2 -48 7 -65 9 -16 3 -52 7 -80 10 -27 3
-79 10 -115 15 -147 21 -280 36 -405 46 -44 3 -90 7 -102 9 -13 2 -24 1 -24
-3z"/>
</g>
</svg>
